<svg xmlns="http://www.w3.org/2000/svg" width="82.357" height="80.124" viewBox="0 0 82.357 80.124"><defs><style>.a{fill:#2ba103;}</style></defs><g transform="translate(-595.79 -573.871)"><g transform="translate(595.79 573.871)"><g transform="translate(0)"><path class="a" d="M88.294,440.5a4.191,4.191,0,0,1-4.191,4.191H53.191A4.191,4.191,0,0,1,49,440.5V410.191A4.191,4.191,0,0,1,53.191,406H84.1a4.191,4.191,0,0,1,4.191,4.191Zm-2.418-30.308a1.773,1.773,0,0,0-1.772-1.772H53.191a1.773,1.773,0,0,0-1.772,1.772V440.5a1.772,1.772,0,0,0,1.772,1.772H84.1a1.772,1.772,0,0,0,1.772-1.772Z" transform="translate(-49 -406)"/></g><g transform="translate(0.374 7.859)"><path class="a" d="M87.1,420.209H50.224a.6.6,0,1,1,0-1.209H87.1a.6.6,0,1,1,0,1.209Z" transform="translate(-49.619 -419)"/></g><g transform="translate(4.001 4.836)"><path class="a" d="M56.828,415.209h-.6a.6.6,0,0,1,0-1.209h.6a.6.6,0,0,1,0,1.209Z" transform="translate(-55.619 -414)"/></g><g transform="translate(8.233 4.836)"><path class="a" d="M63.828,415.209h-.6a.6.6,0,0,1,0-1.209h.6a.6.6,0,0,1,0,1.209Z" transform="translate(-62.619 -414)"/></g><g transform="translate(12.465 4.836)"><path class="a" d="M70.828,415.209h-.6a.6.6,0,0,1,0-1.209h.6a.6.6,0,0,1,0,1.209Z" transform="translate(-69.619 -414)"/></g><g transform="translate(7.024 15.631)"><g transform="translate(0 2.626)"><path class="a" d="M66.765,448.46a.6.6,0,0,1-.47-.224L60.754,441.4a.606.606,0,0,1,0-.762l3.414-4.214a.6.6,0,0,1,.939.762L62,441.017l5.233,6.458a.6.6,0,0,1-.47.985Z" transform="translate(-60.619 -436.2)"/></g><g transform="translate(4.989 0)"><path class="a" d="M69.476,433.747a.6.6,0,0,1-.469-.985l.553-.681a.6.6,0,0,1,.939.761l-.553.681A.6.6,0,0,1,69.476,433.747Z" transform="translate(-68.872 -431.857)"/></g><g transform="translate(18.639)"><path class="a" d="M92.057,446.742a.6.6,0,0,1-.469-.985L96.82,439.3l-5.233-6.458a.6.6,0,1,1,.939-.761l5.54,6.838a.6.6,0,0,1,0,.762l-5.54,6.838A.6.6,0,0,1,92.057,446.742Z" transform="translate(-91.453 -431.856)"/></g><g transform="translate(9.572 3.627)"><path class="a" d="M77.057,445.9a.6.6,0,0,1-.469-.985l5.542-6.838a.6.6,0,1,1,.939.761l-5.541,6.839A.606.606,0,0,1,77.057,445.9Z" transform="translate(-76.453 -437.857)"/></g></g></g><g transform="translate(645.504 582.281)"><g transform="translate(8.961 29.181)"><path class="a" d="M292.462,466.978H279.108a.989.989,0,0,1,0-1.978h13.354a.989.989,0,1,1,0,1.978Z" transform="translate(-278.119 -465)"/></g><path class="a" d="M292.643,427.8a3.429,3.429,0,0,1-3.429,3.429H263.429A3.429,3.429,0,0,1,260,427.8V409.429A3.428,3.428,0,0,1,263.429,406h25.786a3.429,3.429,0,0,1,3.429,3.428Zm-1.978-18.367a1.45,1.45,0,0,0-1.45-1.45H263.429a1.45,1.45,0,0,0-1.45,1.45V427.8a1.45,1.45,0,0,0,1.45,1.45h25.786a1.45,1.45,0,0,0,1.45-1.45Z" transform="translate(-260 -406)"/><g transform="translate(0.553 18.794)"><path class="a" d="M292.278,444.989H261.614a.495.495,0,0,1,0-.989h30.665a.495.495,0,1,1,0,.989Z" transform="translate(-261.119 -444)"/></g><g transform="translate(0.553 4.451)"><path class="a" d="M292.278,415.989H261.614a.495.495,0,0,1,0-.989h30.665a.495.495,0,1,1,0,.989Z" transform="translate(-261.119 -415)"/></g><g transform="translate(9.245 7.876)"><g transform="translate(4.853 3.444)"><path class="a" d="M289,430.222a.486.486,0,0,1-.179-.034.5.5,0,0,1-.281-.64l.135-.345a.495.495,0,0,1,.921.36l-.135.344A.494.494,0,0,1,289,430.222Z" transform="translate(-288.504 -428.888)"/></g><g transform="translate(2.968 5.03)"><path class="a" d="M285.186,436.686a.494.494,0,0,1-.46-.674l1.4-3.6a.495.495,0,0,1,.921.36l-1.4,3.6A.5.5,0,0,1,285.186,436.686Z" transform="translate(-284.692 -432.094)"/></g><g transform="translate(0.963)"><path class="a" d="M281.134,428.182a.489.489,0,0,1-.18-.034.494.494,0,0,1-.281-.64l2.051-5.268a.495.495,0,0,1,.922.358l-2.051,5.269A.5.5,0,0,1,281.134,428.182Z" transform="translate(-280.639 -421.924)"/></g><g transform="translate(0 6.966)"><path class="a" d="M279.186,437.772a.487.487,0,0,1-.179-.034.494.494,0,0,1-.281-.641l.3-.774a.495.495,0,1,1,.921.36l-.3.774A.5.5,0,0,1,279.186,437.772Z" transform="translate(-278.692 -436.008)"/></g></g></g><g transform="translate(595.79 622.258)"><g transform="translate(3.032 25.587)"><path class="a" d="M584.91,669.282a.469.469,0,0,1-.338-.143,2.84,2.84,0,0,1-.8-1.988.471.471,0,0,1,.471-.471h0a.472.472,0,0,1,.471.472,1.9,1.9,0,0,0,.538,1.331.471.471,0,0,1-.339.8Z" transform="translate(-583.768 -666.68)"/></g><g transform="translate(21.885 21.816)"><path class="a" d="M624.91,661.282a.469.469,0,0,1-.338-.143,2.841,2.841,0,0,1-.8-1.988.471.471,0,0,1,.471-.471h0a.472.472,0,0,1,.471.472,1.9,1.9,0,0,0,.538,1.331.471.471,0,0,1-.339.8Z" transform="translate(-623.768 -658.68)"/></g><g transform="translate(5.156 27.972)"><path class="a" d="M588.874,672.71a.865.865,0,0,1-.276-.05.471.471,0,0,1,.252-.907.97.97,0,0,1,.157-.012.471.471,0,0,1,.036.941A.5.5,0,0,1,588.874,672.71Z" transform="translate(-588.275 -671.741)"/></g><g transform="translate(19.325 16.654)"><path class="a" d="M623.992,659.04a5.656,5.656,0,0,1,0-11.312,29.7,29.7,0,0,1,5.791.717.943.943,0,0,1,.724.825c.021.208.475,5.122-2.05,7.909A5.761,5.761,0,0,1,623.992,659.04Zm0-9.427a3.771,3.771,0,0,0,0,7.541,3.9,3.9,0,0,0,3.064-1.237c1.489-1.64,1.628-4.483,1.606-5.781A26.412,26.412,0,0,0,623.992,649.613Z" transform="translate(-618.336 -647.728)"/></g><g transform="translate(29.537 0.285)"><path class="a" d="M641.023,631.854a.9.9,0,0,1-.943-.891L640,614.017A1,1,0,0,1,640.94,613h0a1.027,1.027,0,0,1,.943,1.031l.079,16.875a.941.941,0,0,1-.938.947Z" transform="translate(-640.002 -613)"/></g><g transform="translate(0 20.425)"><path class="a" d="M582.992,667.04a5.656,5.656,0,0,1,0-11.312,29.7,29.7,0,0,1,5.791.717.943.943,0,0,1,.724.825c.021.208.475,5.122-2.05,7.909A5.761,5.761,0,0,1,582.992,667.04Zm0-9.427a3.771,3.771,0,1,0,0,7.541,3.9,3.9,0,0,0,3.064-1.237c1.489-1.64,1.628-4.483,1.606-5.781A26.418,26.418,0,0,0,582.992,657.613Z" transform="translate(-577.336 -655.728)"/></g><g transform="translate(10.212 3.771)"><path class="a" d="M600.023,639.534a.9.9,0,0,1-.943-.892L599,621.373a.967.967,0,0,1,.938-.977h0a.99.99,0,0,1,.943.991l.079,17.22a.924.924,0,0,1-.938.927Z" transform="translate(-599.002 -620.396)"/></g><g transform="translate(10.212)"><path class="a" d="M599.943,617.971a.943.943,0,0,1-.176-1.869l19.325-3.691a.943.943,0,1,1,.354,1.852l-19.325,3.692A.957.957,0,0,1,599.943,617.971Z" transform="translate(-599.001 -612.395)"/></g><g transform="translate(10.638 3.771)"><path class="a" d="M600.848,625.891a.943.943,0,0,1-.176-1.869l18.9-3.61a.943.943,0,1,1,.353,1.852l-18.9,3.611A.991.991,0,0,1,600.848,625.891Z" transform="translate(-599.906 -620.395)"/></g></g><g transform="translate(649.065 624.117)"><g transform="translate(4.922 6.711)"><path class="a" d="M489.982,344.147a.9.9,0,0,1-.894-.919l.087-3.332h-2.243A2.985,2.985,0,0,1,484,336.756V325.062A2.942,2.942,0,0,1,486.931,322h17.958a3.237,3.237,0,0,1,3.272,3.062v11.694a3.274,3.274,0,0,1-3.272,3.141H496.2L490.5,343.98A.892.892,0,0,1,489.982,344.147Zm-3.051-20.358a1.143,1.143,0,0,0-1.141,1.272v11.694a1.216,1.216,0,0,0,1.141,1.351h3.162a.895.895,0,0,1,.894.919l-.064,2.45,4.465-3.2a.894.894,0,0,1,.521-.168h8.979a1.506,1.506,0,0,0,1.482-1.351V325.062a1.437,1.437,0,0,0-1.482-1.272Z" transform="translate(-484 -322)"/></g><g transform="translate(0 0)"><path class="a" d="M474.423,324.181a.7.7,0,0,1-.508-.225,2.793,2.793,0,0,1-.915-2.2V310.062A2.942,2.942,0,0,1,475.931,307h17.958a3.237,3.237,0,0,1,3.272,3.062v.518a.895.895,0,0,1-1.79,0v-.518a1.437,1.437,0,0,0-1.482-1.272H475.931a1.143,1.143,0,0,0-1.141,1.272v11.694a1.026,1.026,0,0,0,.312.86.893.893,0,0,1,.034,1.263A.985.985,0,0,1,474.423,324.181Z" transform="translate(-473 -307)"/></g><g transform="translate(9.673 11.633)"><g transform="translate(0 0)"><path class="a" d="M498.646,333.895h-3.579a.447.447,0,1,1,0-.895h3.579a.447.447,0,1,1,0,.895Z" transform="translate(-494.619 -333)"/></g><g transform="translate(5.369 0)"><path class="a" d="M511.541,333.895h-4.474a.447.447,0,1,1,0-.895h4.474a.447.447,0,0,1,0,.895Z" transform="translate(-506.619 -333)"/></g><g transform="translate(11.633 0)"><path class="a" d="M522.856,333.895h-1.79a.447.447,0,0,1,0-.895h1.79a.447.447,0,0,1,0,.895Z" transform="translate(-520.619 -333)"/></g></g><g transform="translate(9.673 13.87)"><path class="a" d="M496.856,338.895h-1.79a.447.447,0,1,1,0-.895h1.79a.447.447,0,0,1,0,.895Z" transform="translate(-494.619 -338)"/><g transform="translate(3.579)"><path class="a" d="M506.646,338.895h-3.579a.447.447,0,1,1,0-.895h3.579a.447.447,0,1,1,0,.895Z" transform="translate(-502.619 -338)"/></g><g transform="translate(8.948)"><path class="a" d="M519.541,338.895h-4.474a.447.447,0,0,1,0-.895h4.474a.447.447,0,0,1,0,.895Z" transform="translate(-514.619 -338)"/></g></g><g transform="translate(9.673 16.555)"><g transform="translate(0 0)"><path class="a" d="M499.541,344.895h-4.474a.447.447,0,1,1,0-.895h4.474a.447.447,0,0,1,0,.895Z" transform="translate(-494.619 -344)"/></g><g transform="translate(6.264 0)"><path class="a" d="M513.541,344.895h-4.474a.447.447,0,1,1,0-.895h4.474a.447.447,0,1,1,0,.895Z" transform="translate(-508.619 -344)"/></g><g transform="translate(12.528 0)"><path class="a" d="M523.961,344.895h-.895a.447.447,0,0,1,0-.895h.895a.447.447,0,1,1,0,.895Z" transform="translate(-522.619 -344)"/></g></g><g transform="translate(9.673 18.792)"><g transform="translate(0 0)"><path class="a" d="M496.856,349.895h-1.79a.447.447,0,1,1,0-.895h1.79a.447.447,0,0,1,0,.895Z" transform="translate(-494.619 -349)"/></g><g transform="translate(3.579 0)"><path class="a" d="M506.2,349.895h-3.132a.447.447,0,1,1,0-.895H506.2a.447.447,0,1,1,0,.895Z" transform="translate(-502.619 -349)"/></g></g></g></g></svg>