<svg xmlns="http://www.w3.org/2000/svg" width="68.928" height="94.444" viewBox="0 0 68.928 94.444"><defs><style>.a,.f{fill:#fff;}.a,.c,.d,.e{fill-rule:evenodd;}.b,.d,.e{fill:none;}.b,.c,.d,.e{stroke:#2ba103;stroke-miterlimit:22.926;}.b,.d{stroke-width:0.736px;}.c{fill:#2ba103;}.c,.e{stroke-width:0.736px;}</style></defs><path class="a" d="M139.469,106.3A33.963,33.963,0,1,1,105.5,140.267,33.968,33.968,0,0,1,139.469,106.3Z" transform="translate(-105.504 -106.304)"/><g transform="translate(6.005 6.524)"><g transform="translate(24.664)"><line class="b" x1="0.22" y1="59.373" transform="translate(3.186 6.31)"/><path class="c" d="M147.087,114.449a3.3,3.3,0,1,1-3.3,3.294A3.295,3.295,0,0,1,147.087,114.449Z" transform="translate(-143.79 -114.449)"/></g><g transform="translate(10.416 8.652)"><path class="d" d="M131.82,132.505c6.415,9.915,10.9,25.144,9.849,43.321" transform="translate(-127.16 -126.694)"/><path class="c" d="M129.3,125.25a3.3,3.3,0,1,1-3.3,3.295A3.3,3.3,0,0,1,129.3,125.25Z" transform="translate(-126.003 -125.25)"/></g><g transform="translate(0 21.285)"><path class="e" d="M120.491,146.9c9.129,2.855,17.131,9.272,16.077,27.45" transform="translate(-114.491 -142.191)"/><path class="c" d="M116.295,141.021a3.3,3.3,0,1,1-3.295,3.3A3.3,3.3,0,0,1,116.295,141.021Z" transform="translate(-113 -141.021)"/></g><g transform="translate(30.842 8.652)"><path class="d" d="M161.5,132.505c-6.415,9.915-10.9,25.144-9.848,43.321" transform="translate(-151.503 -126.694)"/><path class="c" d="M164.873,125.25a3.3,3.3,0,1,0,3.3,3.295A3.294,3.294,0,0,0,164.873,125.25Z" transform="translate(-153.508 -125.25)"/></g><g transform="translate(33.748 21.285)"><path class="e" d="M171.3,146.9c-9.129,2.855-17.13,9.272-16.077,27.45" transform="translate(-155.131 -142.191)"/><path class="c" d="M177.877,141.021a3.3,3.3,0,1,0,3.295,3.3A3.3,3.3,0,0,0,177.877,141.021Z" transform="translate(-159.001 -141.021)"/></g></g><g transform="translate(0.652 73.372)"><path class="f" d="M111.35,218.974a7.573,7.573,0,0,1-1.049-.078,4.117,4.117,0,0,1-2.207-1.055,4.281,4.281,0,0,1-.909-1.23,7.513,7.513,0,0,1-.63-1.886,13.117,13.117,0,0,1-.236-2.674v-7.336a12.637,12.637,0,0,1,.243-2.673,7.365,7.365,0,0,1,.642-1.867,3.98,3.98,0,0,1,2-1.891,4.274,4.274,0,0,1,1.11-.31,7.929,7.929,0,0,1,1.024-.072,5.409,5.409,0,0,1,2.067.345,3.416,3.416,0,0,1,1.334.946,3.58,3.58,0,0,1,.716,1.4,6.622,6.622,0,0,1,.211,1.7,10.618,10.618,0,0,1-.066,1.231q-.066.564-.2,1.242h-2.546v-1.055a6.624,6.624,0,0,0-.376-2.558,1.2,1.2,0,0,0-1.1-.85,1.643,1.643,0,0,0-.764.171,1.33,1.33,0,0,0-.546.576,3.571,3.571,0,0,0-.333,1.073,9.986,9.986,0,0,0-.115,1.661v9.458a11.789,11.789,0,0,0,.091,1.612,3.172,3.172,0,0,0,.3,1.031,1.228,1.228,0,0,0,.54.551,1.809,1.809,0,0,0,.807.163,1.274,1.274,0,0,0,.582-.139,1.326,1.326,0,0,0,.491-.437,2.384,2.384,0,0,0,.34-.751,4,4,0,0,0,.127-1.073v-2.025h2.873v1.915a5.164,5.164,0,0,1-1.139,3.686A4.362,4.362,0,0,1,111.35,218.974Z" transform="translate(-106.318 -197.901)"/><path class="f" d="M123.094,198.128h3.613l3.831,20.709h-3.177l-.57-3.71h-3.783l-.546,3.71h-3.189Zm3.335,14.634-1.455-10.317h-.133l-1.467,10.317Z" transform="translate(-108.896 -197.946)"/><path class="f" d="M135.834,198.128h2.546l5.02,13.859h.073q-.037-.485-.1-1.079t-.11-1.351q-.048-.758-.085-1.716t-.036-2.159v-7.554h2.813v20.709h-2.57l-5-13.495h-.1c.024.364.057.758.1,1.182s.077.924.11,1.5.06,1.243.085,2.007.036,1.672.036,2.723v6.086h-2.789Z" transform="translate(-112.191 -197.946)"/><path class="f" d="M154.457,200.6h-3.334v-2.474h9.8V200.6H157.6v18.235h-3.141Z" transform="translate(-115.233 -197.946)"/><path class="f" d="M166,198.128h7.675V200.6h-4.535v6.2h3.5v2.474h-3.5v7.094H173.8v2.473H166Z" transform="translate(-118.193 -197.946)"/><path class="f" d="M178.565,198.128h3.141v9.045h.1l3.589-9.045h3.129l-4,9.712,4.45,11H185.61L181.8,208.98h-.1v9.857h-3.141Z" transform="translate(-120.693 -197.946)"/></g></svg>