<svg xmlns="http://www.w3.org/2000/svg" width="98.284" height="79.568" viewBox="0 0 111.527 85.139"><defs><style>.a{fill:#2ba103;}</style></defs><g transform="translate(-102.465 -566.223)"><g transform="translate(158.12 587.623)"><g transform="translate(0)"><path class="a" d="M104.872,455.054a5.959,5.959,0,0,1-5.958,5.958H54.959A5.959,5.959,0,0,1,49,455.054v-43.1A5.959,5.959,0,0,1,54.959,406H98.913a5.959,5.959,0,0,1,5.958,5.959Zm-3.438-43.1a2.521,2.521,0,0,0-2.52-2.52H54.959a2.521,2.521,0,0,0-2.52,2.52v43.1a2.52,2.52,0,0,0,2.52,2.52H98.913a2.52,2.52,0,0,0,2.52-2.52Z" transform="translate(-49 -406)"/></g><g transform="translate(0.532 11.174)"><path class="a" d="M102.912,420.719H50.479a.86.86,0,0,1,0-1.719h52.433a.86.86,0,0,1,0,1.719Z" transform="translate(-49.619 -419)"/></g><g transform="translate(5.689 6.877)"><path class="a" d="M57.338,415.719h-.86a.86.86,0,0,1,0-1.719h.86a.86.86,0,0,1,0,1.719Z" transform="translate(-55.619 -414)"/></g><g transform="translate(11.706 6.877)"><path class="a" d="M64.338,415.719h-.86a.86.86,0,0,1,0-1.719h.86a.86.86,0,0,1,0,1.719Z" transform="translate(-62.619 -414)"/></g><g transform="translate(17.723 6.877)"><path class="a" d="M71.338,415.719h-.86a.86.86,0,0,1,0-1.719h.86a.86.86,0,0,1,0,1.719Z" transform="translate(-69.619 -414)"/></g><g transform="translate(9.987 22.225)"><g transform="translate(0 3.734)"><path class="a" d="M69.358,453.633a.856.856,0,0,1-.668-.318l-7.88-9.723a.861.861,0,0,1,0-1.083l4.854-5.991A.86.86,0,0,1,67,437.6l-4.416,5.45,7.441,9.183a.859.859,0,0,1-.668,1.4Z" transform="translate(-60.619 -436.2)"/></g><g transform="translate(7.094 0)"><path class="a" d="M69.731,434.544a.859.859,0,0,1-.667-1.4l.786-.969a.86.86,0,0,1,1.336,1.082l-.786.969A.858.858,0,0,1,69.731,434.544Z" transform="translate(-68.872 -431.857)"/></g><g transform="translate(26.503)"><path class="a" d="M92.312,453.023a.858.858,0,0,1-.667-1.4l7.44-9.183-7.44-9.183a.86.86,0,1,1,1.336-1.082l7.878,9.723a.859.859,0,0,1,0,1.083L92.98,452.7A.86.86,0,0,1,92.312,453.023Z" transform="translate(-91.453 -431.856)"/></g><g transform="translate(13.61 5.158)"><path class="a" d="M77.312,449.3a.859.859,0,0,1-.667-1.4l7.88-9.723a.859.859,0,1,1,1.335,1.082l-7.879,9.724A.861.861,0,0,1,77.312,449.3Z" transform="translate(-76.453 -437.857)"/></g></g></g><g transform="translate(104.13 566.223)"><g transform="translate(7.662 10.448)"><path class="a" d="M493.312,356.477a1.394,1.394,0,0,1-1.392-1.43l.136-5.187h-3.492A4.647,4.647,0,0,1,484,344.971v-18.2A4.58,4.58,0,0,1,488.563,322h27.955a5.039,5.039,0,0,1,5.094,4.766v18.2a5.1,5.1,0,0,1-5.094,4.889h-13.53l-8.865,6.356A1.389,1.389,0,0,1,493.312,356.477Zm-4.749-31.691a1.779,1.779,0,0,0-1.777,1.98v18.2a1.893,1.893,0,0,0,1.777,2.1h4.923a1.393,1.393,0,0,1,1.392,1.43l-.1,3.814,6.95-4.983a1.391,1.391,0,0,1,.811-.261h13.977a2.344,2.344,0,0,0,2.308-2.1v-18.2a2.236,2.236,0,0,0-2.308-1.98Z" transform="translate(-484 -322)"/></g><g transform="translate(0 0)"><path class="a" d="M475.215,333.746a1.083,1.083,0,0,1-.791-.35A4.348,4.348,0,0,1,473,329.971v-18.2A4.58,4.58,0,0,1,477.563,307h27.955a5.039,5.039,0,0,1,5.093,4.766v.806a1.393,1.393,0,1,1-2.786,0v-.806a2.236,2.236,0,0,0-2.307-1.98H477.563a1.779,1.779,0,0,0-1.777,1.98v18.2a1.6,1.6,0,0,0,.485,1.339,1.39,1.39,0,0,1,.053,1.967A1.534,1.534,0,0,1,475.215,333.746Z" transform="translate(-473 -307)"/></g><g transform="translate(15.058 18.109)"><path class="a" d="M500.888,334.393h-5.572a.7.7,0,1,1,0-1.393h5.572a.7.7,0,1,1,0,1.393Z" transform="translate(-494.619 -333)"/><g transform="translate(8.358)"><path class="a" d="M514.281,334.393h-6.965a.7.7,0,0,1,0-1.393h6.965a.7.7,0,1,1,0,1.393Z" transform="translate(-506.619 -333)"/></g><g transform="translate(18.109)"><path class="a" d="M524.1,334.393h-2.786a.7.7,0,0,1,0-1.393H524.1a.7.7,0,0,1,0,1.393Z" transform="translate(-520.619 -333)"/></g></g><g transform="translate(15.058 21.592)"><path class="a" d="M498.1,339.393h-2.786a.7.7,0,1,1,0-1.393H498.1a.7.7,0,1,1,0,1.393Z" transform="translate(-494.619 -338)"/><g transform="translate(5.572)"><path class="a" d="M508.888,339.393h-5.572a.7.7,0,1,1,0-1.393h5.572a.7.7,0,1,1,0,1.393Z" transform="translate(-502.619 -338)"/></g><g transform="translate(13.93)"><path class="a" d="M522.281,339.393h-6.965a.7.7,0,1,1,0-1.393h6.965a.7.7,0,1,1,0,1.393Z" transform="translate(-514.619 -338)"/></g></g><g transform="translate(15.058 25.771)"><path class="a" d="M502.28,345.393h-6.965a.7.7,0,1,1,0-1.393h6.965a.7.7,0,1,1,0,1.393Z" transform="translate(-494.619 -344)"/><g transform="translate(9.751)"><path class="a" d="M516.281,345.393h-6.965a.7.7,0,0,1,0-1.393h6.965a.7.7,0,1,1,0,1.393Z" transform="translate(-508.619 -344)"/></g><g transform="translate(19.502)"><path class="a" d="M524.709,345.393h-1.393a.7.7,0,0,1,0-1.393h1.393a.7.7,0,0,1,0,1.393Z" transform="translate(-522.619 -344)"/></g></g><g transform="translate(15.058 29.253)"><path class="a" d="M498.1,350.393h-2.786a.7.7,0,1,1,0-1.393H498.1a.7.7,0,1,1,0,1.393Z" transform="translate(-494.619 -349)"/><g transform="translate(5.572)"><path class="a" d="M508.191,350.393h-4.875a.7.7,0,1,1,0-1.393h4.875a.7.7,0,1,1,0,1.393Z" transform="translate(-502.619 -349)"/></g></g></g><g transform="translate(102.465 619.448)"><g transform="translate(0 5.41)"><path class="a" d="M376.789,442.615a9.621,9.621,0,0,1-6.849-2.837l-.319-.318a9.7,9.7,0,0,1,0-13.7l6.814-6.813a9.684,9.684,0,0,1,13.7,0l.318.318a9.7,9.7,0,0,1,0,13.7l-6.813,6.813A9.623,9.623,0,0,1,376.789,442.615Zm6.495-24.57a7.7,7.7,0,0,0-5.481,2.271l-6.813,6.813a7.762,7.762,0,0,0,0,10.964l.318.318a7.751,7.751,0,0,0,10.963,0l6.813-6.813a7.762,7.762,0,0,0,0-10.964l-.318-.318A7.7,7.7,0,0,0,383.284,418.045Z" transform="translate(-366.79 -416.111)"/></g><g transform="translate(2.987 15.073)"><path class="a" d="M374.442,446.133a.484.484,0,0,1-.4-.208c-1.829-2.638-1.319-5.462,1.473-8.168l1.518-1.517a.483.483,0,0,1,.684.684l-1.523,1.523c-2.447,2.37-2.9,4.7-1.357,6.928a.483.483,0,0,1-.4.759Z" transform="translate(-372.968 -436.099)"/></g><g transform="translate(4.906 25.327)"><path class="a" d="M377.646,458.5a.479.479,0,0,1-.341-.142l-.226-.225a.483.483,0,1,1,.684-.684l.225.225a.483.483,0,0,1-.342.825Z" transform="translate(-376.937 -457.311)"/></g><g transform="translate(8.747 9.546)"><path class="a" d="M398.014,438.282a.488.488,0,0,1-.219-.052,28,28,0,0,1-12.876-12.9.484.484,0,0,1,.894-.37,27.552,27.552,0,0,0,12.421,12.4.483.483,0,0,1-.22.914Z" transform="translate(-384.882 -424.666)"/></g><g transform="translate(16.011 12.879)"><path class="a" d="M400.391,434.239a.483.483,0,0,1-.342-.825l1.71-1.71a.483.483,0,0,1,.684.684l-1.709,1.71A.482.482,0,0,1,400.391,434.239Z" transform="translate(-399.908 -431.562)"/></g><g transform="translate(22.303 0)"><path class="a" d="M413.889,415.443a.967.967,0,0,1-.963-.891c-.01-.127-.2-3.142,4.063-5.238a6.483,6.483,0,0,0,3-3.69.967.967,0,1,1,1.861.526,8.447,8.447,0,0,1-4,4.9c-3.046,1.5-2.99,3.332-2.989,3.351a.968.968,0,0,1-.889,1.04C413.94,415.443,413.915,415.443,413.889,415.443Z" transform="translate(-412.922 -404.921)"/></g></g></g></svg>