<svg xmlns="http://www.w3.org/2000/svg" width="98.284" height="79.568" viewBox="0 0 98.284 79.568"><defs><style>.a{fill:#2ba103;}</style></defs><g transform="translate(-333.97 -574.368)"><g transform="translate(333.97 574.368)"><g transform="translate(0 14.192)"><path class="a" d="M511.333,457.862c-4.208,0-10.164-4.663-12.583-9.724H492.1c-2.406,5.061-8.359,9.62-12.583,9.62-7.672,0-9.4-15-9.4-20.244A12.423,12.423,0,0,1,482.411,425h26.03a12.392,12.392,0,0,1,12.292,12.455C520.733,442.745,519.006,457.862,511.333,457.862Zm-20.176-12.617h8.538a1.47,1.47,0,0,1,1.348.946c1.763,4.52,7.292,8.79,10.291,8.79,4.333,0,6.507-11.24,6.507-17.522a9.5,9.5,0,0,0-9.4-9.568h-26.03a9.656,9.656,0,0,0-9.4,9.634c0,7.087,2.317,17.351,6.508,17.351,3.017,0,8.549-4.224,10.291-8.692A1.463,1.463,0,0,1,491.157,445.246Z" transform="translate(-470.119 -425)"/></g><g transform="translate(22.776 31.546)"><path class="a" d="M503.065,450.446h-.723a.723.723,0,1,1,0-1.446h.723a.723.723,0,1,1,0,1.446Z" transform="translate(-501.619 -449)"/></g><g transform="translate(8.746 31.546)"><path class="a" d="M482.938,459.6a.714.714,0,1,1,0-1.428c2.076,0,7.173-5.205,8.521-8.688a.743.743,0,0,1,.675-.484H494.8a.723.723,0,0,1,0,1.446h-2.186C490.991,454.061,485.921,459.6,482.938,459.6Z" transform="translate(-482.215 -449)"/></g><g transform="translate(22.582)"><path class="a" d="M504.062,422.292a1.446,1.446,0,0,1-.922-2.562,5.1,5.1,0,0,0,2.029-3.4,1.868,1.868,0,0,0-.69-1.508c-1.619-1.457-4.985-4.489-1.821-8.852a1.446,1.446,0,0,1,2.341,1.7c-1.3,1.792-1.009,2.821,1.414,5a4.752,4.752,0,0,1,1.648,3.719,7.832,7.832,0,0,1-3.08,5.573A1.443,1.443,0,0,1,504.062,422.292Z" transform="translate(-501.35 -405.372)"/></g><g transform="translate(6.146 21.473)"><g transform="translate(5.337)"><path class="a" d="M486.723,446.638a.722.722,0,0,1-.723-.723V435.792a.723.723,0,1,1,1.446,0v10.123A.722.722,0,0,1,486.723,446.638Z" transform="translate(-486 -435.069)"/></g><g transform="translate(0 5.012)"><path class="a" d="M489.465,443.446H479.342a.723.723,0,1,1,0-1.446h10.123a.723.723,0,1,1,0,1.446Z" transform="translate(-478.619 -442)"/></g></g><g transform="translate(32.381 22.391)"><g transform="translate(3.965)"><path class="a" d="M522.862,441.272a2.478,2.478,0,0,1-1.751-4.231,2.535,2.535,0,0,1,3.5,0,2.478,2.478,0,0,1-1.752,4.231Zm0-3.51a1.031,1.031,0,0,0-.729,1.761,1.054,1.054,0,0,0,1.459,0,1.031,1.031,0,0,0-.73-1.761Z" transform="translate(-520.385 -436.339)"/></g><g transform="translate(7.928 3.965)"><path class="a" d="M528.346,446.755a2.478,2.478,0,0,1-1.753-4.231,2.537,2.537,0,0,1,3.5,0,2.478,2.478,0,0,1-1.752,4.231Zm0-3.51a1.032,1.032,0,0,0-.73,1.761,1.058,1.058,0,0,0,1.461,0,1.033,1.033,0,0,0-.731-1.762Z" transform="translate(-525.867 -441.822)"/></g><g transform="translate(0 3.965)"><path class="a" d="M517.38,446.755a2.478,2.478,0,0,1-1.752-4.231,2.537,2.537,0,0,1,3.5,0,2.478,2.478,0,0,1-1.752,4.231Zm0-3.51a1.032,1.032,0,0,0-.73,1.761,1.057,1.057,0,0,0,1.461,0,1.033,1.033,0,0,0-.73-1.762Z" transform="translate(-514.902 -441.822)"/></g><g transform="translate(3.965 7.928)"><path class="a" d="M522.862,452.237a2.478,2.478,0,0,1-1.751-4.231,2.536,2.536,0,0,1,3.5,0,2.478,2.478,0,0,1-1.752,4.231Zm0-3.51a1.032,1.032,0,0,0-.729,1.762,1.057,1.057,0,0,0,1.459,0,1.033,1.033,0,0,0-.73-1.762Z" transform="translate(-520.385 -447.304)"/></g></g></g><g transform="translate(395.352 582.763)"><g transform="translate(1.002)"><path class="a" d="M478.532,622.889a5.087,5.087,0,1,1,5.087-5.087A5.092,5.092,0,0,1,478.532,622.889Zm0-8.535a3.448,3.448,0,1,0,3.449,3.448A3.452,3.452,0,0,0,478.532,614.354Z" transform="translate(-473.445 -612.715)"/></g><g transform="translate(3.42 4.391)"><path class="a" d="M479.76,624.538a.41.41,0,0,1-.41-.41v-.082a1.083,1.083,0,0,1,.023-.282.41.41,0,0,1,.805.154.3.3,0,0,0-.009.1l0,.109A.409.409,0,0,1,479.76,624.538Z" transform="translate(-479.348 -623.432)"/></g><g transform="translate(3.804 2.421)"><path class="a" d="M480.694,620.445a.409.409,0,0,1-.34-.637,2.662,2.662,0,0,1,2.215-1.183.41.41,0,0,1,0,.819,1.844,1.844,0,0,0-1.534.819A.409.409,0,0,1,480.694,620.445Z" transform="translate(-480.285 -618.625)"/></g><g transform="translate(12.473)"><path class="a" d="M506.532,622.889a5.087,5.087,0,1,1,5.087-5.087A5.092,5.092,0,0,1,506.532,622.889Zm0-8.535a3.448,3.448,0,1,0,3.449,3.448A3.452,3.452,0,0,0,506.532,614.354Z" transform="translate(-501.445 -612.715)"/></g><g transform="translate(15.275 2.421)"><path class="a" d="M508.694,620.445a.409.409,0,0,1-.34-.637,2.662,2.662,0,0,1,2.215-1.183.41.41,0,0,1,0,.819,1.844,1.844,0,0,0-1.534.819A.409.409,0,0,1,508.694,620.445Z" transform="translate(-508.285 -618.625)"/></g><g transform="translate(0 10.768)"><path class="a" d="M489.1,655.387H473.889a2.672,2.672,0,0,1-2.889-2.57V642.109A3.127,3.127,0,0,1,473.889,639H489.1a2.942,2.942,0,0,1,2.84,2.974c0,.02,0,.081,0,.1l-.021.307c1.205-.627,3.048-1.6,4.335-2.284a2.564,2.564,0,0,1,1.123-.3,1.36,1.36,0,0,1,1.011.422,2.191,2.191,0,0,1,.469,1.613V652.9a1.873,1.873,0,0,1-.274,1.138,1.341,1.341,0,0,1-1.123.529h.025a3.853,3.853,0,0,1-1.106-.224.782.782,0,0,1-.134-.059c-1.568-.826-3.259-1.7-4.348-2.249l.042.681c0,.017,0-.051,0-.034A2.716,2.716,0,0,1,489.1,655.387Zm-15.214-14.749a1.5,1.5,0,0,0-1.25,1.471v10.708c0,.636.554.931,1.25.931H489.1a1.1,1.1,0,0,0,1.2-1.045l-.121-1.981a.772.772,0,0,1,.221-.59.811.811,0,0,1,.6-.247c.243,0,.435.005,5.946,2.907.085.026.207.063.322.091V641.808a2.361,2.361,0,0,0-.014-.342,1.651,1.651,0,0,0-.258.1c-5.658,3.026-5.729,3.027-6,3.027a.819.819,0,0,1-.817-.878l.12-1.769a1.321,1.321,0,0,0-1.2-1.31Z" transform="translate(-471 -639)"/></g><g transform="translate(2.458 13.227)"><path class="a" d="M477.41,649.263a.409.409,0,0,1-.41-.41v-2.082c0-.758.663-1.772,1.485-1.772h3.48a.41.41,0,1,1,0,.819h-3.48c-.3,0-.666.571-.666.953v2.082A.409.409,0,0,1,477.41,649.263Z" transform="translate(-477 -645)"/><g transform="translate(6.194)"><path class="a" d="M492.938,645.819h-.41a.41.41,0,1,1,0-.819h.41a.41.41,0,0,1,0,.819Z" transform="translate(-492.119 -645)"/></g></g></g><g transform="translate(399.66 620.775)"><g transform="translate(3.133 26.441)"><path class="a" d="M584.948,669.369a.484.484,0,0,1-.35-.148,2.935,2.935,0,0,1-.83-2.054.487.487,0,0,1,.487-.487h0a.487.487,0,0,1,.487.488,1.967,1.967,0,0,0,.556,1.376.487.487,0,0,1-.35.826Z" transform="translate(-583.768 -666.68)"/></g><g transform="translate(22.616 22.544)"><path class="a" d="M624.948,661.369a.484.484,0,0,1-.35-.148,2.935,2.935,0,0,1-.83-2.054.487.487,0,0,1,.487-.487h0a.487.487,0,0,1,.487.488,1.967,1.967,0,0,0,.556,1.375.487.487,0,0,1-.35.826Z" transform="translate(-623.768 -658.68)"/></g><g transform="translate(5.328 28.906)"><path class="a" d="M588.894,672.742a.9.9,0,0,1-.285-.052.487.487,0,0,1,.26-.937,1.007,1.007,0,0,1,.163-.012.487.487,0,0,1,.037.973A.521.521,0,0,1,588.894,672.742Z" transform="translate(-588.275 -671.741)"/></g><g transform="translate(19.97 17.21)"><path class="a" d="M624.181,659.418a5.845,5.845,0,0,1,0-11.69,30.7,30.7,0,0,1,5.985.741.974.974,0,0,1,.748.853c.021.215.491,5.293-2.119,8.173A5.953,5.953,0,0,1,624.181,659.418Zm0-9.741a3.9,3.9,0,0,0,0,7.793,4.031,4.031,0,0,0,3.167-1.278c1.539-1.695,1.682-4.633,1.66-5.974A27.3,27.3,0,0,0,624.181,649.676Z" transform="translate(-618.336 -647.728)"/></g><g transform="translate(30.523 0.295)"><path class="a" d="M641.057,632.483a.934.934,0,0,1-.974-.921L640,614.051a1.037,1.037,0,0,1,.969-1.051h0a1.061,1.061,0,0,1,.974,1.066l.081,17.439a.972.972,0,0,1-.969.979Z" transform="translate(-640.002 -613)"/></g><g transform="translate(0 21.107)"><path class="a" d="M583.181,667.418a5.845,5.845,0,0,1,0-11.69,30.7,30.7,0,0,1,5.985.741.975.975,0,0,1,.748.853c.021.215.491,5.293-2.119,8.173A5.953,5.953,0,0,1,583.181,667.418Zm0-9.741a3.9,3.9,0,0,0,0,7.793,4.03,4.03,0,0,0,3.167-1.278c1.539-1.695,1.682-4.633,1.66-5.974A27.3,27.3,0,0,0,583.181,657.676Z" transform="translate(-577.336 -655.728)"/></g><g transform="translate(10.553 3.897)"><path class="a" d="M600.057,640.173a.934.934,0,0,1-.974-.922L599,621.405a1,1,0,0,1,.97-1.009h0a1.023,1.023,0,0,1,.974,1.024l.081,17.8a.955.955,0,0,1-.97.958Z" transform="translate(-599.002 -620.396)"/></g><g transform="translate(10.553)"><path class="a" d="M599.975,618.157a.974.974,0,0,1-.182-1.931l19.97-3.815a.974.974,0,1,1,.365,1.914l-19.97,3.815A.991.991,0,0,1,599.975,618.157Z" transform="translate(-599.001 -612.395)"/></g><g transform="translate(10.993 3.897)"><path class="a" d="M600.88,626.074a.974.974,0,0,1-.182-1.931l19.529-3.731a.974.974,0,1,1,.365,1.914l-19.529,3.731A1.025,1.025,0,0,1,600.88,626.074Z" transform="translate(-599.906 -620.395)"/></g></g><g transform="translate(359.277 628.484)"><g transform="translate(7.32 23.836)"><path class="a" d="M289.835,466.616H278.927a.808.808,0,0,1,0-1.616h10.908a.808.808,0,0,1,0,1.616Z" transform="translate(-278.119 -465)"/></g><g transform="translate(0)"><path class="a" d="M286.664,423.8a2.8,2.8,0,0,1-2.8,2.8H262.8a2.8,2.8,0,0,1-2.8-2.8v-15a2.8,2.8,0,0,1,2.8-2.8h21.063a2.8,2.8,0,0,1,2.8,2.8Zm-1.616-15a1.185,1.185,0,0,0-1.185-1.185H262.8a1.184,1.184,0,0,0-1.185,1.185v15a1.184,1.184,0,0,0,1.185,1.184h21.063a1.184,1.184,0,0,0,1.185-1.184Z" transform="translate(-260 -406)"/></g><g transform="translate(0.452 15.352)"><path class="a" d="M286.571,444.808H261.523a.4.4,0,0,1,0-.808h25.048a.4.4,0,1,1,0,.808Z" transform="translate(-261.119 -444)"/></g><g transform="translate(0.452 3.636)"><path class="a" d="M286.571,415.808H261.523a.4.4,0,0,1,0-.808h25.048a.4.4,0,1,1,0,.808Z" transform="translate(-261.119 -415)"/></g><g transform="translate(7.552 6.433)"><g transform="translate(3.964 2.814)"><path class="a" d="M288.908,429.978a.4.4,0,0,1-.146-.027.4.4,0,0,1-.23-.523l.11-.282a.4.4,0,1,1,.753.294l-.11.281A.4.4,0,0,1,288.908,429.978Z" transform="translate(-288.504 -428.888)"/></g><g transform="translate(2.424 4.108)"><path class="a" d="M285.1,435.844a.4.4,0,0,1-.376-.551l1.146-2.943a.4.4,0,0,1,.753.294l-1.146,2.942A.4.4,0,0,1,285.1,435.844Z" transform="translate(-284.692 -432.094)"/></g><g transform="translate(0.786)"><path class="a" d="M281.043,427.036a.4.4,0,0,1-.147-.027.4.4,0,0,1-.23-.523l1.675-4.3a.4.4,0,0,1,.753.293l-1.675,4.3A.4.4,0,0,1,281.043,427.036Z" transform="translate(-280.639 -421.924)"/></g><g transform="translate(0 5.69)"><path class="a" d="M279.1,437.449a.4.4,0,0,1-.146-.027.4.4,0,0,1-.229-.523l.246-.633a.4.4,0,0,1,.753.294l-.246.633A.4.4,0,0,1,279.1,437.449Z" transform="translate(-278.692 -436.008)"/></g></g></g></g></svg>